<svg width="512" height="512" viewBox="0 0 512 512" fill="none" xmlns="http://www.w3.org/2000/svg">
  <!-- Background circle -->
  <circle cx="256" cy="256" r="256" fill="url(#gradient1)"/>
  
  <!-- Main productivity symbol - checkmark in circle -->
  <circle cx="256" cy="256" r="160" fill="white" opacity="0.95"/>
  <circle cx="256" cy="256" r="130" fill="url(#gradient2)"/>
  
  <!-- Checkmark -->
  <path d="M202 256L234 288L310 212" stroke="white" stroke-width="20" stroke-linecap="round" stroke-linejoin="round"/>
  
  <!-- Gamification elements - stars -->
  <circle cx="106" cy="106" r="20" fill="#FFD700"/>
  <circle cx="406" cy="106" r="16" fill="#FFD700"/>
  <circle cx="106" cy="406" r="16" fill="#FFD700"/>
  <circle cx="406" cy="406" r="20" fill="#FFD700"/>
  
  <!-- Additional decorative stars -->
  <circle cx="256" cy="80" r="8" fill="#FFD700"/>
  <circle cx="256" cy="432" r="8" fill="#FFD700"/>
  <circle cx="80" cy="256" r="8" fill="#FFD700"/>
  <circle cx="432" cy="256" r="8" fill="#FFD700"/>
  
  <!-- Small decorative elements -->
  <circle cx="256" cy="80" r="8" fill="white" opacity="0.7"/>
  <circle cx="256" cy="432" r="8" fill="white" opacity="0.7"/>
  <circle cx="80" cy="256" r="8" fill="white" opacity="0.7"/>
  <circle cx="432" cy="256" r="8" fill="white" opacity="0.7"/>
  
  <!-- Inner decorative circles -->
  <circle cx="256" cy="256" r="100" fill="none" stroke="white" stroke-width="2" opacity="0.3"/>
  <circle cx="256" cy="256" r="80" fill="none" stroke="white" stroke-width="1" opacity="0.2"/>
  
  <!-- Gradients -->
  <defs>
    <linearGradient id="gradient1" x1="0%" y1="0%" x2="100%" y2="100%">
      <stop offset="0%" style="stop-color:#FF6B35;stop-opacity:1" />
      <stop offset="100%" style="stop-color:#F7931E;stop-opacity:1" />
    </linearGradient>
    <linearGradient id="gradient2" x1="0%" y1="0%" x2="100%" y2="100%">
      <stop offset="0%" style="stop-color:#1F1F1F;stop-opacity:1" />
      <stop offset="100%" style="stop-color:#2D2D2D;stop-opacity:1" />
    </linearGradient>
  </defs>
</svg> 